<?xml version="1.0" encoding="UTF-8" standalone="no"?>
<!-- Created with Inkscape (http://www.inkscape.org/) -->
<svg xmlns:dc="http://purl.org/dc/elements/1.1/" xmlns:cc="http://creativecommons.org/ns#" xmlns:rdf="http://www.w3.org/1999/02/22-rdf-syntax-ns#" xmlns:svg="http://www.w3.org/2000/svg" xmlns="http://www.w3.org/2000/svg" xmlns:sodipodi="http://sodipodi.sourceforge.net/DTD/sodipodi-0.dtd" xmlns:inkscape="http://www.inkscape.org/namespaces/inkscape" viewBox="0 0 67.204167 75.563015" id="svg15286" version="1.1" inkscape:version="0.91+devel+osxmenu r12859" sodipodi:docname="truck.svg">
  <defs id="defs15288">
    <clipPath id="clipPath40" clipPathUnits="userSpaceOnUse">
      <path style="clip-rule:evenodd" inkscape:connector-curvature="0" id="path42" d="m 1996.6574,1990.2158 c 1.9075,-1.0245 8.0757,-8.1291 3.4405,-6.1084 -1.9145,0.8347 -6.2212,3.3844 -10.6174,6.0901 -0.038,1.7258 -0.3035,3.5715 -0.4516,4.8279 3.6212,-2.0306 6.5537,-4.2323 7.6285,-4.8096 z"/>
    </clipPath>
    <clipPath id="clipPath62" clipPathUnits="userSpaceOnUse">
      <path style="clip-rule:evenodd" inkscape:connector-curvature="0" id="path64" d="m 1970.3517,1984.8176 c -1.5352,0.8865 -2.425,2.847 -0.2933,2.3379 l 9.8536,-5.1718 c 7.0433,-4.039 15.7719,-9.1829 15.7719,-9.1829 0,0 1.8906,-1.0077 3.8648,-2.131 3.2664,-1.8586 6.7616,-5.4224 2.3006,-3.8726 -7.1572,2.4863 -29.589,16.9184 -31.4976,18.0204 z"/>
    </clipPath>
    <clipPath id="clipPath72" clipPathUnits="userSpaceOnUse">
      <path style="clip-rule:evenodd" inkscape:connector-curvature="0" id="path74" d="m 2042.1242,1982.727 c -1.8837,-0.995 -24.2919,-14.3841 -31.0574,-16.2307 -4.2169,-1.151 -2.7498,1.6165 0.4691,3.2879 1.9455,1.0103 3.7962,1.8999 3.7962,1.8999 0,0 18.6429,10.0832 23.1802,12.166 4.5374,2.0827 5.4957,-0.128 3.6119,-1.1231 z"/>
    </clipPath>
    <clipPath id="clipPath94" clipPathUnits="userSpaceOnUse">
      <path style="clip-rule:evenodd" inkscape:connector-curvature="0" id="path96" d="m 1992.8417,2008.3156 2.0779,-1.2612 c 0,0 1.9079,-0.9746 3.9014,-2.0633 3.2985,-1.8012 6.8553,-5.3034 2.3679,-3.8318 -2.0302,0.6658 -6.1621,2.8532 -11.092,5.675 l 2.7448,1.4813 z"/>
    </clipPath>
    <clipPath id="clipPath116" clipPathUnits="userSpaceOnUse">
      <path style="clip-rule:evenodd" inkscape:connector-curvature="0" id="path118" d="m 2000.1466,2012.258 2.0496,-1.244 c 0,0 1.9078,-0.9746 3.9014,-2.0632 3.2983,-1.8013 6.8552,-5.3035 2.3679,-3.8319 -2.0263,0.6645 -6.1459,2.8445 -11.0629,5.6582 l 2.744,1.4809 z"/>
    </clipPath>
    <clipPath id="clipPath126" clipPathUnits="userSpaceOnUse">
      <path style="clip-rule:evenodd" inkscape:connector-curvature="0" id="path128" d="m 2007.4515,2016.2004 2.0212,-1.2268 c 0,0 1.9079,-0.9746 3.9014,-2.0632 3.2984,-1.8013 6.8553,-5.3035 2.3679,-3.8319 -2.0223,0.6632 -6.1295,2.8359 -11.0336,5.6415 l 2.7431,1.4804 z"/>
    </clipPath>
    <clipPath id="clipPath138" clipPathUnits="userSpaceOnUse">
      <path style="clip-rule:evenodd" inkscape:connector-curvature="0" id="path140" d="m 2014.7565,2020.1429 1.9927,-1.2097 c 0,0 1.9079,-0.9745 3.9014,-2.0632 3.2983,-1.8013 6.8553,-5.3035 2.3679,-3.8319 -2.0182,0.6619 -6.1131,2.8273 -11.0043,5.6248 l 2.7423,1.48 z"/>
    </clipPath>
    <clipPath id="clipPath150" clipPathUnits="userSpaceOnUse">
      <path style="clip-rule:evenodd" inkscape:connector-curvature="0" id="path152" d="m 2038.3091,1973.5363 c -0.9314,0.083 1.8807,4.029 3.461,3.6645 3.826,-0.8824 -1.8081,-3.8121 -3.461,-3.6645 z"/>
    </clipPath>
    <clipPath id="clipPath162" clipPathUnits="userSpaceOnUse">
      <path style="clip-rule:evenodd" inkscape:connector-curvature="0" id="path164" d="m 2013.7209,1959.4857 c -0.9314,0.083 1.8807,4.029 3.461,3.6645 3.826,-0.8825 -1.8081,-3.8121 -3.461,-3.6645 z"/>
    </clipPath>
    <clipPath id="clipPath176" clipPathUnits="userSpaceOnUse">
      <path style="clip-rule:evenodd" inkscape:connector-curvature="0" id="path178" d="m 1950.5926,1981.976 c -1.6529,-0.1475 -7.287,2.7821 -3.461,3.6646 1.5803,0.3645 4.3924,-3.5814 3.461,-3.6646 z"/>
    </clipPath>
    <clipPath id="clipPath190" clipPathUnits="userSpaceOnUse">
      <path style="clip-rule:evenodd" inkscape:connector-curvature="0" id="path192" d="m 1994.6215,1956.5532 c -1.6528,-0.1475 -7.2869,2.7821 -3.4609,3.6646 1.5802,0.3646 4.3924,-3.5814 3.4609,-3.6646 z"/>
    </clipPath>
    <clipPath id="clipPath200" clipPathUnits="userSpaceOnUse">
      <path style="clip-rule:evenodd" inkscape:connector-curvature="0" id="path202" d="m 2039.2503,2007.9543 c -1.8837,-0.9951 -24.292,-14.3841 -31.0574,-16.2308 -4.217,-1.1509 -2.7499,1.6165 0.469,3.288 1.9455,1.0103 3.7963,1.8998 3.7963,1.8998 0,0 18.6428,10.0833 23.1802,12.166 4.5374,2.0828 5.4957,-0.1279 3.6119,-1.123 z"/>
    </clipPath>
    <clipPath id="clipPath216" clipPathUnits="userSpaceOnUse">
      <path inkscape:connector-curvature="0" id="path218" d="m 2036.0786,2003.707 c 0.8368,0.3296 1.4954,0.254 2.0074,-0.012 0.7247,0.5902 2.1535,0.1713 2.1535,0.1713 0,0 -0.01,-8.7551 -0.2376,-12.0063 -0.1854,-2.4868 -0.4673,-5.8855 -0.6477,-6.8198 -0.4843,-2.5079 -2.2268,1.1854 -2.0959,2.2455 0.074,0.5974 0.1659,3.9556 0.3841,5.9805 0.2305,0.6926 0.089,4.4593 0.034,7.1157 -3.098,-1.637 -9.1928,-4.84 -13.825,-7.1647 0.4246,-2.8204 1.043,-7.0859 1.2232,-9.1558 0.2059,-2.4853 0.4592,-5.8862 0.4271,-6.8372 -0.086,-2.5529 -2.3848,0.8225 -2.4213,1.89 -0.021,0.6016 -0.4549,3.9328 -0.5562,5.967 l 0.1113,-0.047 c 0.01,0.7596 -0.706,4.3893 -1.1759,6.9992 -0.5756,-0.28 -1.1023,-0.5316 -1.5663,-0.7472 -4.2096,-1.9395 -9.9863,-4.5559 -11.6599,-5.1516 -4.4926,-1.599 0.081,3.7032 1.9187,4.4677 1.0355,0.4307 6.5885,3.2397 10.0721,4.7382 l -0.02,-0.1789 c 1.9695,0.7409 14.0467,7.8264 15.8737,8.5461 z"/>
    </clipPath>
  </defs>
  <sodipodi:namedview id="base" pagecolor="#ffffff" bordercolor="#666666" borderopacity="1.0" inkscape:pageopacity="0.0" inkscape:pageshadow="2" inkscape:zoom="0.35" inkscape:cx="127" inkscape:cy="142.79626" inkscape:document-units="mm" inkscape:current-layer="layer1" showgrid="false" fit-margin-top="2" fit-margin-left="2" fit-margin-right="2" fit-margin-bottom="2" inkscape:window-width="960" inkscape:window-height="600" inkscape:window-x="0" inkscape:window-y="23" inkscape:window-maximized="0"/>
  <metadata id="metadata15291">
    <rdf:RDF>
      <cc:Work rdf:about="">
        <dc:format>image/svg+xml</dc:format>
        <dc:type rdf:resource="http://purl.org/dc/dcmitype/StillImage"/>
        <dc:title/>
      </cc:Work>
    </rdf:RDF>
  </metadata>
  <g inkscape:label="Capa 1" inkscape:groupmode="layer" id="layer1" transform="translate(-72.231252,-111.05183)">
    <g inkscape:export-ydpi="90" inkscape:export-xdpi="90" inkscape:export-filename="/Volumes/Depot/lloc web/img/logo.png" transform="matrix(0.57785142,0,0,-0.57785142,-65.552952,392.02737)" inkscape:label="Sin TiÌtulo-1" id="g3806">
      <g id="g3808">
        <path inkscape:connector-curvature="0" id="path3811" style="fill:#e20a16;fill-opacity:1;fill-rule:evenodd;stroke:none" d="m 283.8419,442.978 c 0.1854,0.7414 24.4347,-13.813 24.4347,-13.813 0,0 0.4059,0.2052 1.0058,-0.1089 0.5998,-0.3142 -0.107,-14.6644 -0.107,-14.6644 l -26.0849,14.5432 0.7514,14.0431 z"/>
        <path inkscape:connector-curvature="0" id="path3813" style="fill:#ee6c73;fill-opacity:1;fill-rule:evenodd;stroke:none" d="m 257.4992,413.8357 c 0.1853,0.7414 26.0345,15.1993 26.0345,15.1993 0,0 11.5187,-6.7367 12.1186,-7.0509 0.5999,-0.3142 -5.3681,-26.2985 -5.3681,-26.2985 l -32.785,18.1501 z"/>
        <path inkscape:connector-curvature="0" id="path3815" style="fill:#e20a16;fill-opacity:1;fill-rule:evenodd;stroke:none" d="m 244.3467,421.7987 c 0.1854,0.7414 37.8449,21.9095 37.8449,21.9095 0,0 0.4059,0.2052 1.0058,-0.1089 0.5999,-0.3142 -0.1069,-14.6644 -0.1069,-14.6644 l -25.5913,-15.0992 -13.1525,7.963 z"/>
        <path inkscape:connector-curvature="0" id="path3817" style="fill:#3d3938;fill-opacity:1;fill-rule:nonzero;stroke:none" d="m 283.1041,444.849 c 0.044,-0.902 -1.0085,-0.9318 -0.9125,-1.1408 0.2362,-0.8522 38.8887,-22.6028 38.96,-22.5529 l 1.9933,1.1855 -37.8531,21.6879 -2.1877,0.8203 z"/>
        <path inkscape:connector-curvature="0" id="path3819" style="fill:#3d3938;fill-opacity:1;fill-rule:nonzero;stroke:none" d="m 258.8202,408.7624 c 10e-5,-0.8214 26.2466,-18.563 49.5455,-24.6365 18.6679,-4.8663 17.0076,16.6235 16.8747,16.3339 -0.063,-0.2284 25.6886,-21.5861 25.5461,-21.7146 l -7.3902,-4.777 -29.5534,-17.2136 c -0.3118,-0.4209 -0.8809,-0.4947 -1.5323,-0.1185 -0.065,0.037 -0.1285,0.078 -0.1914,0.1222 l -19.2823,11.1146 -39.805,22.9838 c -0.6724,0.3934 -5.566,3.0421 -8.9237,5.1663 -1.8205,1.1518 -1.7815,3.5392 0.2449,4.853 5.1987,3.3709 14.4671,9.1197 14.4671,7.8864 z"/>
        <path inkscape:connector-curvature="0" id="path3821" style="fill:#3d3938;fill-opacity:1;fill-rule:nonzero;stroke:none" d="m 317.3531,363.9651 -32.5613,35.6563 5.6377,-2.9591 0,22.034 38.9829,21.0387 c 5.4592,-3.5094 11.0027,-7.2552 16.3869,-11.0882 6.3156,-4.4962 6.129,-26.6026 6.5354,-27.6483 0.9398,-2.1322 1.4895,-4.3723 1.4895,-6.4402 10e-5,-1.7849 0.05,-8.1512 -0.3109,-8.9366 -0.076,-0.2755 -0.2063,-0.4942 -0.3783,-0.6492 l 0.041,-0.1423 -35.8225,-20.8651 z"/>
        <path inkscape:connector-curvature="0" id="path3823" style="fill:#e20a16;fill-opacity:1;fill-rule:nonzero;stroke:none" d="m 351.8496,386.0854 -34.7752,-20.4373 -29.9941,32.7721 3.3492,-1.7579 0,22.034 37.2183,20.0863 c 5.8041,-3.7183 11.763,-7.7351 17.5893,-11.8829 2.0461,-1.4567 4.0188,-10.4084 4.0876,-12.7412 0.046,-1.5696 0.9647,-12.7581 1.127,-13.1815 0.7518,-1.6938 1.2129,-3.5241 1.2129,-5.1717 0,-0.5066 0.4904,-9.8963 0.185,-9.7199 z"/>
        <path inkscape:connector-curvature="0" id="path3825" style="fill:#231f20;fill-opacity:1;fill-rule:evenodd;stroke:none" d="m 305.8147,363.6557 0.958,6.8656 c 0,0 6.0672,2.7143 6.0672,-1.2773 0,-3.9917 -7.0252,-5.5883 -7.0252,-5.5883 z m -43.9075,25.5466 0.958,6.8656 c 0,0 6.0672,2.7143 6.0672,-1.2773 0,-3.9917 -7.0252,-5.5883 -7.0252,-5.5883 z"/>
        <path inkscape:connector-curvature="0" id="path3827" style="fill:#3d3938;fill-opacity:1;fill-rule:nonzero;stroke:none" d="m 242.5055,420.9047 c 0.025,0.1895 0.039,0.4927 0.051,0.8846 l 47.8727,-25.127 0,22.034 1.7394,0.9387 c 5.9577,-3.814 12.0217,-7.9037 17.8657,-12.0641 6.3156,-4.4963 6.129,-26.6026 6.5354,-27.6484 0.9398,-2.1322 1.4895,-4.3722 1.4896,-6.4401 0,-1.785 0.05,-8.1512 -0.3109,-8.9366 -0.2513,-0.9069 -1.0848,-1.1988 -2.0767,-0.6261 -0.078,0.045 -0.155,0.094 -0.2308,0.1475 l -23.2634,13.4092 -48.0231,27.729 c -1.2508,0.732 -2.2643,2.4303 -2.2643,3.8041 0,0.1593 0.01,7.3197 0.6151,11.8952 z"/>
        <path inkscape:connector-curvature="0" id="path3829" style="fill:#e20a16;fill-opacity:1;fill-rule:nonzero;stroke:none" d="m 290.4295,396.6623 0,21.9714 c 6.2596,-3.9741 12.7291,-8.3151 19.0429,-12.81 2.0461,-1.4567 4.0189,-10.4084 4.0877,-12.7411 0.046,-1.5697 0.9646,-12.7582 1.1269,-13.1816 0.7519,-1.6937 1.2129,-3.524 1.213,-5.1716 0,-0.5066 -0.1212,-5.5133 -0.1857,-8.1452 -0.05,-0.2286 -0.09,-0.5511 -0.3957,-0.3747 -0.1773,0.1167 -23.1417,13.3532 -23.1417,13.3532 l -47.9084,27.6628 c -0.092,0.064 -0.1577,0.1001 -0.2239,0.1384 -0.1921,0.1109 -0.3479,0.3807 -0.3479,0.6026 0,0.1555 -1.0356,9.2844 -0.4451,13.7504 0.033,0.2464 47.1779,-25.0546 47.1779,-25.0546 z"/>
        <path inkscape:connector-curvature="0" id="path3831" style="fill:#ffffff;fill-opacity:1;fill-rule:nonzero;stroke:none" d="m 310.2304,387.0275 c -2.3731,1.1463 -7.0847,3.7808 -12.0796,6.6454 -0.019,2.1609 -0.3076,14.9939 -0.3165,16.4082 4.1579,-2.2999 13.4089,-5.0719 13.5046,-21.662 0.09,-0.6205 -0.031,-1.9123 -1.1085,-1.3916 z"/>
        <g id="g3833" clip-path="url(#clipPath40)" transform="translate(-1692,-1584)">
          <path d="m 1996.6574,1990.2158 c 1.9075,-1.0245 8.0757,-8.1291 3.4405,-6.1084 -1.9145,0.8347 -6.2212,3.3844 -10.6174,6.0901 -0.038,1.7258 -0.3035,3.5715 -0.4516,4.8279 3.6212,-2.0306 6.5537,-4.2323 7.6285,-4.8096 z" style="fill:#dbf3f6;fill-opacity:1;fill-rule:evenodd;stroke:none" id="path3835" inkscape:connector-curvature="0"/>
          <path d="m 1950.8202,1992.7624 c 10e-5,-0.8214 26.2466,-18.563 49.5455,-24.6365 18.6679,-4.8663 17.0076,16.6235 16.8747,16.3339 -0.063,-0.2284 25.6886,-21.5861 25.5461,-21.7146 l -7.3902,-4.777 -29.5534,-17.2136 c -0.3118,-0.4209 -0.8809,-0.4947 -1.5323,-0.1185 -0.065,0.037 -0.1285,0.078 -0.1914,0.1222 l -19.2823,11.1146 -39.805,22.9838 c -0.6724,0.3934 -5.566,3.0421 -8.9237,5.1663 -1.8205,1.1518 -1.7815,3.5392 0.2449,4.853 5.1987,3.3709 14.4671,9.1197 14.4671,7.8864 z" style="fill:#4f5f5b;fill-opacity:1;fill-rule:nonzero;stroke:none" id="path3837" inkscape:connector-curvature="0"/>
          <path d="m 2009.3531,1947.9651 -32.5613,35.6563 5.6377,-2.9591 0,22.034 38.9829,21.0387 c 5.4592,-3.5094 11.0027,-7.2552 16.3869,-11.0882 6.3156,-4.4962 6.129,-26.6026 6.5354,-27.6483 0.9398,-2.1322 1.4895,-4.3723 1.4895,-6.4402 10e-5,-1.7849 0.05,-8.1512 -0.3109,-8.9366 -0.076,-0.2755 -0.2063,-0.4942 -0.3783,-0.6492 l 0.041,-0.1423 -35.8225,-20.8651 z" style="fill:#4f5f5b;fill-opacity:1;fill-rule:nonzero;stroke:none" id="path3839" inkscape:connector-curvature="0"/>
          <path d="m 2043.8496,1970.0854 -34.7752,-20.4373 -29.9941,32.7721 3.3492,-1.7579 0,22.034 37.2183,20.0863 c 5.8041,-3.7183 11.763,-7.7351 17.5893,-11.8829 2.0461,-1.4567 4.0188,-10.4084 4.0876,-12.7412 0.046,-1.5696 0.9647,-12.7581 1.127,-13.1815 0.7518,-1.6938 1.2129,-3.5241 1.2129,-5.1717 0,-0.5066 0.4904,-9.8963 0.185,-9.7199 z" style="fill:#d56154;fill-opacity:1;fill-rule:nonzero;stroke:none" id="path3841" inkscape:connector-curvature="0"/>
          <path d="m 1934.5055,2004.9047 c 0.025,0.1895 0.039,0.4927 0.051,0.8846 l 47.8727,-25.127 0,22.034 1.7394,0.9387 c 5.9577,-3.814 12.0217,-7.9037 17.8657,-12.0641 6.3156,-4.4963 6.129,-26.6026 6.5354,-27.6484 0.9398,-2.1322 1.4895,-4.3722 1.4896,-6.4401 0,-1.785 0.05,-8.1512 -0.3109,-8.9366 -0.2513,-0.9069 -1.0848,-1.1988 -2.0767,-0.6261 -0.078,0.045 -0.155,0.094 -0.2308,0.1475 l -23.2634,13.4092 -48.0231,27.729 c -1.2508,0.732 -2.2643,2.4303 -2.2643,3.8041 0,0.1593 0.01,7.3197 0.6151,11.8952 z" style="fill:#4f5f5b;fill-opacity:1;fill-rule:nonzero;stroke:none" id="path3843" inkscape:connector-curvature="0"/>
          <path d="m 1982.4295,1980.6623 0,21.9714 c 6.2596,-3.9741 12.7291,-8.3151 19.0429,-12.81 2.0461,-1.4567 4.0189,-10.4084 4.0877,-12.7411 0.046,-1.5697 0.9646,-12.7582 1.1269,-13.1816 0.7519,-1.6937 1.2129,-3.524 1.213,-5.1716 0,-0.5066 -0.1212,-5.5133 -0.1857,-8.1452 -0.05,-0.2286 -0.09,-0.5511 -0.3957,-0.3747 -0.1773,0.1167 -23.1417,13.3532 -23.1417,13.3532 l -47.9084,27.6628 c -0.092,0.064 -0.1577,0.1001 -0.2239,0.1384 -0.1921,0.1109 -0.3479,0.3807 -0.3479,0.6026 0,0.1555 -1.0356,9.2844 -0.4451,13.7504 0.033,0.2464 47.1779,-25.0546 47.1779,-25.0546 z" style="fill:#d56154;fill-opacity:1;fill-rule:nonzero;stroke:none" id="path3845" inkscape:connector-curvature="0"/>
          <path d="m 2002.2304,1971.0275 c -2.3731,1.1463 -7.0847,3.7808 -12.0796,6.6454 -0.019,2.1609 -0.3076,14.9939 -0.3165,16.4082 4.1579,-2.2999 13.4089,-5.0719 13.5046,-21.662 0.09,-0.6205 -0.031,-1.9123 -1.1085,-1.3916 z" style="fill:#dbf3f6;fill-opacity:1;fill-rule:nonzero;stroke:none" id="path3847" inkscape:connector-curvature="0"/>
        </g>
        <g style="fill:#ff5555" id="g3849" clip-path="url(#clipPath62)" transform="translate(-1692,-1584)">
          <path d="m 1970.3517,1984.8176 c -1.5352,0.8865 -2.425,2.847 -0.2933,2.3379 l 9.8536,-5.1718 c 7.0433,-4.039 15.7719,-9.1829 15.7719,-9.1829 0,0 1.8906,-1.0077 3.8648,-2.131 3.2664,-1.8586 6.7616,-5.4224 2.3006,-3.8726 -7.1572,2.4863 -29.589,16.9184 -31.4976,18.0204 z" style="fill:#ff5555;fill-opacity:1;fill-rule:evenodd;stroke:none" id="path3851" inkscape:connector-curvature="0"/>
        </g>
        <g style="fill:#ff5555" id="g3853" clip-path="url(#clipPath72)" transform="translate(-1692,-1584)">
          <path d="m 2042.1242,1982.727 c -1.8837,-0.995 -24.2919,-14.3841 -31.0574,-16.2307 -4.2169,-1.151 -2.7498,1.6165 0.4691,3.2879 1.9455,1.0103 3.7962,1.8999 3.7962,1.8999 0,0 18.6429,10.0832 23.1802,12.166 4.5374,2.0827 5.4957,-0.128 3.6119,-1.1231 z" style="fill:#ff5555;fill-opacity:1;fill-rule:evenodd;stroke:none" id="path3855" inkscape:connector-curvature="0"/>
          <path d="m 1950.8202,1992.7624 c 10e-5,-0.8214 26.2466,-18.563 49.5455,-24.6365 18.6679,-4.8663 17.0076,16.6235 16.8747,16.3339 -0.063,-0.2284 25.6886,-21.5861 25.5461,-21.7146 l -7.3902,-4.777 -29.5534,-17.2136 c -0.3118,-0.4209 -0.8809,-0.4947 -1.5323,-0.1185 -0.065,0.037 -0.1285,0.078 -0.1914,0.1222 l -19.2823,11.1146 -39.805,22.9838 c -0.6724,0.3934 -5.566,3.0421 -8.9237,5.1663 -1.8205,1.1518 -1.7815,3.5392 0.2449,4.853 5.1987,3.3709 14.4671,9.1197 14.4671,7.8864 z" style="fill:#ff5555;fill-opacity:1;fill-rule:nonzero;stroke:none" id="path3857" inkscape:connector-curvature="0"/>
          <path d="m 2009.3531,1947.9651 -32.5613,35.6563 5.6377,-2.9591 0,22.034 38.9829,21.0387 c 5.4592,-3.5094 11.0027,-7.2552 16.3869,-11.0882 6.3156,-4.4962 6.129,-26.6026 6.5354,-27.6483 0.9398,-2.1322 1.4895,-4.3723 1.4895,-6.4402 10e-5,-1.7849 0.05,-8.1512 -0.3109,-8.9366 -0.076,-0.2755 -0.2063,-0.4942 -0.3783,-0.6492 l 0.041,-0.1423 -35.8225,-20.8651 z" style="fill:#ff5555;fill-opacity:1;fill-rule:nonzero;stroke:none" id="path3859" inkscape:connector-curvature="0"/>
          <path d="m 2043.8496,1970.0854 -34.7752,-20.4373 -29.9941,32.7721 3.3492,-1.7579 0,22.034 37.2183,20.0863 c 5.8041,-3.7183 11.763,-7.7351 17.5893,-11.8829 2.0461,-1.4567 4.0188,-10.4084 4.0876,-12.7412 0.046,-1.5696 0.9647,-12.7581 1.127,-13.1815 0.7518,-1.6938 1.2129,-3.5241 1.2129,-5.1717 0,-0.5066 0.4904,-9.8963 0.185,-9.7199 z" style="fill:#ff5555;fill-opacity:1;fill-rule:nonzero;stroke:none" id="path3861" inkscape:connector-curvature="0"/>
          <path d="m 1934.5055,2004.9047 c 0.025,0.1895 0.039,0.4927 0.051,0.8846 l 47.8727,-25.127 0,22.034 1.7394,0.9387 c 5.9577,-3.814 12.0217,-7.9037 17.8657,-12.0641 6.3156,-4.4963 6.129,-26.6026 6.5354,-27.6484 0.9398,-2.1322 1.4895,-4.3722 1.4896,-6.4401 0,-1.785 0.05,-8.1512 -0.3109,-8.9366 -0.2513,-0.9069 -1.0848,-1.1988 -2.0767,-0.6261 -0.078,0.045 -0.155,0.094 -0.2308,0.1475 l -23.2634,13.4092 -48.0231,27.729 c -1.2508,0.732 -2.2643,2.4303 -2.2643,3.8041 0,0.1593 0.01,7.3197 0.6151,11.8952 z" style="fill:#ff5555;fill-opacity:1;fill-rule:nonzero;stroke:none" id="path3863" inkscape:connector-curvature="0"/>
          <path d="m 1982.4295,1980.6623 0,21.9714 c 6.2596,-3.9741 12.7291,-8.3151 19.0429,-12.81 2.0461,-1.4567 4.0189,-10.4084 4.0877,-12.7411 0.046,-1.5697 0.9646,-12.7582 1.1269,-13.1816 0.7519,-1.6937 1.2129,-3.524 1.213,-5.1716 0,-0.5066 -0.1212,-5.5133 -0.1857,-8.1452 -0.05,-0.2286 -0.09,-0.5511 -0.3957,-0.3747 -0.1773,0.1167 -23.1417,13.3532 -23.1417,13.3532 l -47.9084,27.6628 c -0.092,0.064 -0.1577,0.1001 -0.2239,0.1384 -0.1921,0.1109 -0.3479,0.3807 -0.3479,0.6026 0,0.1555 -1.0356,9.2844 -0.4451,13.7504 0.033,0.2464 47.1779,-25.0546 47.1779,-25.0546 z" style="fill:#ff5555;fill-opacity:1;fill-rule:nonzero;stroke:none" id="path3865" inkscape:connector-curvature="0"/>
        </g>
        <path inkscape:connector-curvature="0" id="path3867" style="fill:#ffffff;fill-opacity:1;fill-rule:evenodd;stroke:none" d="m 347.3272,417.6228 c 0.5126,-2.058 -0.3193,-13.4119 0.3194,-14.2102 0.5473,-0.6842 -29.7781,-16.9862 -29.8057,-16.9517 -0.6387,0.7984 -1.2952,12.4987 -1.8077,14.5567 -0.1715,0.6882 -0.3737,2.0033 -0.7983,3.0336 l 31.1246,15.9956 c 0.4193,-0.8154 0.7764,-1.6558 0.9677,-2.424 z"/>
        <g id="g3869" clip-path="url(#clipPath94)" transform="translate(-1693.6,-1584)">
          <path d="m 1992.8417,2008.3156 2.0779,-1.2612 c 0,0 1.9079,-0.9746 3.9014,-2.0633 3.2985,-1.8012 6.8553,-5.3034 2.3679,-3.8318 -2.0302,0.6658 -6.1621,2.8532 -11.092,5.675 l 2.7448,1.4813 z" style="fill:#fabd7a;fill-opacity:1;fill-rule:evenodd;stroke:none" id="path3871" inkscape:connector-curvature="0"/>
          <path d="m 1975.8419,2026.978 c 0.1854,0.7414 24.4347,-13.813 24.4347,-13.813 0,0 0.4059,0.2052 1.0058,-0.1089 0.5998,-0.3142 -0.107,-14.6644 -0.107,-14.6644 l -26.0849,14.5432 0.7514,14.0431 z" style="fill:#f25626;fill-opacity:1;fill-rule:evenodd;stroke:none" id="path3873" inkscape:connector-curvature="0"/>
          <path d="m 1975.1041,2028.849 c 0.044,-0.902 -1.0085,-0.9318 -0.9125,-1.1408 0.2362,-0.8522 38.8887,-22.6028 38.96,-22.5529 l 1.9933,1.1855 -37.8531,21.6879 -2.1877,0.8203 z" style="fill:#8b5c32;fill-opacity:1;fill-rule:nonzero;stroke:none" id="path3875" inkscape:connector-curvature="0"/>
          <path d="m 2009.3531,1947.9651 -32.5613,35.6563 5.6377,-2.9591 0,22.034 38.9829,21.0387 c 5.4592,-3.5094 11.0027,-7.2552 16.3869,-11.0882 6.3156,-4.4962 6.129,-26.6026 6.5354,-27.6483 0.9398,-2.1322 1.4895,-4.3723 1.4895,-6.4402 10e-5,-1.7849 0.05,-8.1512 -0.3109,-8.9366 -0.076,-0.2755 -0.2063,-0.4942 -0.3783,-0.6492 l 0.041,-0.1423 -35.8225,-20.8651 z" style="fill:#8b5c32;fill-opacity:1;fill-rule:nonzero;stroke:none" id="path3877" inkscape:connector-curvature="0"/>
          <path d="m 2043.8496,1970.0854 -34.7752,-20.4373 -29.9941,32.7721 3.3492,-1.7579 0,22.034 37.2183,20.0863 c 5.8041,-3.7183 11.763,-7.7351 17.5893,-11.8829 2.0461,-1.4567 4.0188,-10.4084 4.0876,-12.7412 0.046,-1.5696 0.9647,-12.7581 1.127,-13.1815 0.7518,-1.6938 1.2129,-3.5241 1.2129,-5.1717 0,-0.5066 0.4904,-9.8963 0.185,-9.7199 z" style="fill:#f25626;fill-opacity:1;fill-rule:nonzero;stroke:none" id="path3879" inkscape:connector-curvature="0"/>
          <path d="m 1934.5055,2004.9047 c 0.025,0.1895 0.039,0.4927 0.051,0.8846 l 47.8727,-25.127 0,22.034 1.7394,0.9387 c 5.9577,-3.814 12.0217,-7.9037 17.8657,-12.0641 6.3156,-4.4963 6.129,-26.6026 6.5354,-27.6484 0.9398,-2.1322 1.4895,-4.3722 1.4896,-6.4401 0,-1.785 0.05,-8.1512 -0.3109,-8.9366 -0.2513,-0.9069 -1.0848,-1.1988 -2.0767,-0.6261 -0.078,0.045 -0.155,0.094 -0.2308,0.1475 l -23.2634,13.4092 -48.0231,27.729 c -1.2508,0.732 -2.2643,2.4303 -2.2643,3.8041 0,0.1593 0.01,7.3197 0.6151,11.8952 z" style="fill:#8b5c32;fill-opacity:1;fill-rule:nonzero;stroke:none" id="path3881" inkscape:connector-curvature="0"/>
          <path d="m 1982.4295,1980.6623 0,21.9714 c 6.2596,-3.9741 12.7291,-8.3151 19.0429,-12.81 2.0461,-1.4567 4.0189,-10.4084 4.0877,-12.7411 0.046,-1.5697 0.9646,-12.7582 1.1269,-13.1816 0.7519,-1.6937 1.2129,-3.524 1.213,-5.1716 0,-0.5066 -0.1212,-5.5133 -0.1857,-8.1452 -0.05,-0.2286 -0.09,-0.5511 -0.3957,-0.3747 -0.1773,0.1167 -23.1417,13.3532 -23.1417,13.3532 l -47.9084,27.6628 c -0.092,0.064 -0.1577,0.1001 -0.2239,0.1384 -0.1921,0.1109 -0.3479,0.3807 -0.3479,0.6026 0,0.1555 -1.0356,9.2844 -0.4451,13.7504 0.033,0.2464 47.1779,-25.0546 47.1779,-25.0546 z" style="fill:#f25626;fill-opacity:1;fill-rule:nonzero;stroke:none" id="path3883" inkscape:connector-curvature="0"/>
        </g>
        <g style="fill:#f25626;fill-opacity:1" id="g3885" clip-path="url(#clipPath116)" transform="translate(-1692,-1584)">
          <path d="m 2000.1466,2012.258 2.0496,-1.244 c 0,0 1.9078,-0.9746 3.9014,-2.0632 3.2983,-1.8013 6.8552,-5.3035 2.3679,-3.8319 -2.0263,0.6645 -6.1459,2.8445 -11.0629,5.6582 l 2.744,1.4809 z" style="fill:#f25626;fill-opacity:1;fill-rule:evenodd;stroke:none" id="path3887" inkscape:connector-curvature="0"/>
        </g>
        <g style="fill:#f25626;fill-opacity:1" id="g3889" clip-path="url(#clipPath126)" transform="translate(-1692,-1584)">
          <path d="m 2007.4515,2016.2004 2.0212,-1.2268 c 0,0 1.9079,-0.9746 3.9014,-2.0632 3.2984,-1.8013 6.8553,-5.3035 2.3679,-3.8319 -2.0223,0.6632 -6.1295,2.8359 -11.0336,5.6415 l 2.7431,1.4804 z" style="fill:#f25626;fill-opacity:1;fill-rule:evenodd;stroke:none" id="path3891" inkscape:connector-curvature="0"/>
        </g>
        <path inkscape:connector-curvature="0" id="path3893" style="fill:#3d3938;fill-opacity:1;fill-rule:evenodd;stroke:none" d="m 293.5399,407.1605 c -0.023,1.3315 1.1238,2.6631 1.3354,-0.4895 0.2116,-3.1525 0.3245,-16.3719 0.3245,-16.3719 0,0 0.066,-1.2929 0.099,-2.6651 0.054,-2.2704 -0.7042,-5.19 -1.2899,-2.397 -0.9397,4.4811 -0.446,20.5919 -0.4691,21.9235 z"/>
        <g style="fill:#f25626;fill-opacity:1" id="g3895" clip-path="url(#clipPath138)" transform="translate(-1692,-1584)">
          <path d="m 2014.7565,2020.1429 1.9927,-1.2097 c 0,0 1.9079,-0.9745 3.9014,-2.0632 3.2983,-1.8013 6.8553,-5.3035 2.3679,-3.8319 -2.0182,0.6619 -6.1131,2.8273 -11.0043,5.6248 l 2.7423,1.48 z" style="fill:#f25626;fill-opacity:1;fill-rule:evenodd;stroke:none" id="path3897" inkscape:connector-curvature="0"/>
        </g>
        <path inkscape:connector-curvature="0" id="path3899" style="fill:#ffffff;fill-opacity:1;fill-rule:evenodd;stroke:none" d="m 348.5529,393.3616 c 0,0 3.6803,2.0643 3.6275,-2.0944 -0.026,-2.0629 -1.9454,-4.7659 -3.2072,-5.4944 -1.2618,-0.7286 -3.6802,-1.9429 -3.6801,1.7604 1e-4,3.7034 2.1557,5.1301 3.2598,5.8284 z"/>
        <g id="g3901" clip-path="url(#clipPath150)" transform="translate(-1692,-1584)">
          <path d="m 2038.3091,1973.5363 c -0.9314,0.083 1.8807,4.029 3.461,3.6645 3.826,-0.8824 -1.8081,-3.8121 -3.461,-3.6645 z" style="fill:#f2f1ef;fill-opacity:1;fill-rule:evenodd;stroke:none" id="path3903" inkscape:connector-curvature="0"/>
        </g>
        <path inkscape:connector-curvature="0" id="path3905" style="fill:#ffffff;fill-opacity:1;fill-rule:evenodd;stroke:none" d="m 323.9647,379.3109 c 0,0 3.6802,2.0643 3.6275,-2.0943 -0.026,-2.0629 -1.9454,-4.7659 -3.2072,-5.4945 -1.2618,-0.7286 -3.6802,-1.9429 -3.6801,1.7605 10e-5,3.7033 2.1557,5.1301 3.2598,5.8283 z"/>
        <g id="g3907" clip-path="url(#clipPath162)" transform="translate(-1692,-1584)">
          <path d="m 2013.7209,1959.4857 c -0.9314,0.083 1.8807,4.029 3.461,3.6645 3.826,-0.8825 -1.8081,-3.8121 -3.461,-3.6645 z" style="fill:#f2f1ef;fill-opacity:1;fill-rule:evenodd;stroke:none" id="path3909" inkscape:connector-curvature="0"/>
        </g>
        <path inkscape:connector-curvature="0" id="path3911" style="fill:#231f20;fill-opacity:1;fill-rule:evenodd;stroke:none" d="m 256.7659,406.7882 c 2.3708,-1.4993 6.9995,-4.563 6.9998,-12.5152 2e-4,-7.9523 -5.1929,-5.3448 -7.9024,-3.7804 -2.7094,1.5645 -6.8307,7.3687 -6.8868,11.7983 -0.1132,8.93 7.7894,4.4973 7.7894,4.4973 z"/>
        <path inkscape:connector-curvature="0" id="path3913" style="fill:#ffffff;fill-opacity:1;fill-rule:evenodd;stroke:none" d="m 256.4418,401.901 c 1.1041,-0.6982 3.2596,-2.125 3.2598,-5.8283 1e-4,-3.7034 -2.4183,-2.4891 -3.6801,-1.7605 -1.2618,0.7286 -3.1811,3.4316 -3.2072,5.4944 -0.053,4.1587 3.6275,2.0944 3.6275,2.0944 z"/>
        <g id="g3915" clip-path="url(#clipPath176)" transform="translate(-1692,-1584)">
          <path d="m 1950.5926,1981.976 c -1.6529,-0.1475 -7.287,2.7821 -3.461,3.6646 1.5803,0.3645 4.3924,-3.5814 3.461,-3.6646 z" style="fill:#f2f1ef;fill-opacity:1;fill-rule:evenodd;stroke:none" id="path3917" inkscape:connector-curvature="0"/>
        </g>
        <path inkscape:connector-curvature="0" id="path3919" style="fill:#231f20;fill-opacity:1;fill-rule:evenodd;stroke:none" d="m 300.7948,381.3654 c 2.3708,-1.4992 6.9996,-4.563 6.9998,-12.5152 3e-4,-7.9523 -5.1928,-5.3448 -7.9023,-3.7803 -2.7095,1.5645 -6.8307,7.3687 -6.8869,11.7982 -0.1132,8.93 7.7894,4.4973 7.7894,4.4973 z"/>
        <path inkscape:connector-curvature="0" id="path3921" style="fill:#ffffff;fill-opacity:1;fill-rule:evenodd;stroke:none" d="m 300.4707,376.4783 c 1.1041,-0.6982 3.2597,-2.125 3.2599,-5.8284 0,-3.7033 -2.4184,-2.489 -3.6802,-1.7605 -1.2618,0.7286 -3.181,3.4316 -3.2072,5.4945 -0.053,4.1587 3.6275,2.0944 3.6275,2.0944 z"/>
        <g id="g3923" clip-path="url(#clipPath190)" transform="translate(-1692,-1584)">
          <path d="m 1994.6215,1956.5532 c -1.6528,-0.1475 -7.2869,2.7821 -3.4609,3.6646 1.5802,0.3646 4.3924,-3.5814 3.4609,-3.6646 z" style="fill:#f2f1ef;fill-opacity:1;fill-rule:evenodd;stroke:none" id="path3925" inkscape:connector-curvature="0"/>
        </g>
        <g style="fill:#f25626;fill-opacity:1" id="g3927" clip-path="url(#clipPath200)" transform="translate(-1692,-1584)">
          <path d="m 2039.2503,2007.9543 c -1.8837,-0.9951 -24.292,-14.3841 -31.0574,-16.2308 -4.217,-1.1509 -2.7499,1.6165 0.469,3.288 1.9455,1.0103 3.7963,1.8998 3.7963,1.8998 0,0 18.6428,10.0833 23.1802,12.166 4.5374,2.0828 5.4957,-0.1279 3.6119,-1.123 z" style="fill:#f25626;fill-opacity:1;fill-rule:evenodd;stroke:none" id="path3929" inkscape:connector-curvature="0"/>
        </g>
        <path inkscape:connector-curvature="0" id="path3931" style="fill:#3d3938;fill-opacity:1;fill-rule:nonzero;stroke:none" d="m 291.8449,419.03 -1.335,1.6688 39.011,19.2085 c 0.2958,-0.1921 0.8142,-0.6795 0.4128,-1.4449 -0.091,-0.2712 -0.232,-0.4828 -0.4118,-0.6286 l 0.033,-0.1442 -37.7101,-18.6596 z"/>
        <path inkscape:connector-curvature="0" id="path3933" style="fill:#3d3938;fill-opacity:1;fill-rule:nonzero;stroke:none" d="m 289.6887,418.3139 0.5014,1.5204 1.5167,-0.3397 0.2124,-23.9411 c -0.3115,-0.1655 -2.8117,-4.4094 -2.8521,-4.1815 l 0.6966,5.6571 -0.075,21.2848 z"/>
        <path inkscape:connector-curvature="0" id="path3935" style="fill:#3d3938;fill-opacity:1;fill-rule:nonzero;stroke:none" d="m 289.8424,419.4472 c 0,0.8295 0.6537,1.5019 1.4601,1.5019 0.8064,0 1.4602,-0.6724 1.4602,-1.5019 0,-0.8295 -0.6538,-1.5019 -1.4602,-1.5019 -0.8064,0 -1.4601,0.6724 -1.4601,1.5019 z"/>
        <g id="g3937" clip-path="url(#clipPath216)" transform="translate(-1692,-1584)">
          <path d="m 2036.0786,2003.707 c 0.8368,0.3296 1.4954,0.254 2.0074,-0.012 0.7247,0.5902 2.1535,0.1713 2.1535,0.1713 0,0 -0.01,-8.7551 -0.2376,-12.0063 -0.1854,-2.4868 -0.4673,-5.8855 -0.6477,-6.8198 -0.4843,-2.5079 -2.2268,1.1854 -2.0959,2.2455 0.074,0.5974 0.1659,3.9556 0.3841,5.9805 0.2305,0.6926 0.089,4.4593 0.034,7.1157 -3.098,-1.637 -9.1928,-4.84 -13.825,-7.1647 0.4246,-2.8204 1.043,-7.0859 1.2232,-9.1558 0.2059,-2.4853 0.4592,-5.8862 0.4271,-6.8372 -0.086,-2.5529 -2.3848,0.8225 -2.4213,1.89 -0.021,0.6016 -0.4549,3.9328 -0.5562,5.967 l 0.1113,-0.047 c 0.01,0.7596 -0.706,4.3893 -1.1759,6.9992 -0.5756,-0.28 -1.1023,-0.5316 -1.5663,-0.7472 -4.2096,-1.9395 -9.9863,-4.5559 -11.6599,-5.1516 -4.4926,-1.599 0.081,3.7032 1.9187,4.4677 1.0355,0.4307 6.5885,3.2397 10.0721,4.7382 l -0.02,-0.1789 c 1.9695,0.7409 14.0467,7.8264 15.8737,8.5461 z" style="fill:#b8e8fb;fill-opacity:1;fill-rule:nonzero;stroke:none" id="path3939" inkscape:connector-curvature="0"/>
        </g>
        <path inkscape:connector-curvature="0" id="path3941" style="fill:#e20a16;fill-opacity:1;fill-rule:evenodd;stroke:none" d="m 330.3522,414.4265 3.51,-21.7904 1.9159,1.2774 -3.6506,21.4007 -1.7753,-0.8877 z"/>
        <path inkscape:connector-curvature="0" id="path3943" style="fill:#3d3938;fill-opacity:1;fill-rule:nonzero;stroke:none" d="m 243.2516,421.7169 c 0.1168,-0.5445 41.2015,-23.453 47.0326,-26.7727 0.7396,-0.421 0,1.9237 0,1.9237 l -46.6336,25.647 c 0,0 -0.7527,-0.2085 -0.8708,-0.4168 -0.089,-0.157 0.4418,-0.3137 0.4718,-0.3812 z"/>
        <path inkscape:connector-curvature="0" id="path3945" style="fill:#3d3938;fill-opacity:1;fill-rule:nonzero;stroke:none" d="m 283.2334,444.849 c -0.044,-0.902 0.06,-1.0408 -0.036,-1.2497 -0.2362,-0.8523 -39.1896,-21.4772 -38.0116,-22.444 l -1.9933,1.1855 37.8532,21.6879 2.1877,0.8203 z"/>
        <path inkscape:connector-curvature="0" id="path3947" style="fill:#3d3938;fill-opacity:1;fill-rule:nonzero;stroke:none" d="m 283.882,443.2553 c 0.4616,-0.5121 0.6259,-8.6899 0.407,-13.3457 -0.051,-1.0779 -1.1985,-0.9747 -1.1985,-0.9747 l -0.5118,0.3618 0.036,14.6607 c 0,0 1.1453,-0.5145 1.2672,-0.7021 z"/>
        <path inkscape:connector-curvature="0" id="path3949" style="fill:#3d3938;fill-opacity:1;fill-rule:nonzero;stroke:none" d="m 283.9854,430.3875 c -0.028,-0.9026 -0.081,-1.5812 -0.1738,-1.7918 -0.2212,-0.8562 -26.3071,-15.4682 -26.3792,-15.4196 l -1.1058,0.7162 26.187,15.3285 1.4718,1.1667 z"/>
        <path inkscape:connector-curvature="0" id="path3951" style="fill:#3d3938;fill-opacity:1;fill-rule:nonzero;stroke:none" d="m 283.0895,429.5365 c 0.6809,0.1082 7.38,-4.0309 13.6749,-7.1817 0.8763,-0.6296 -1.9048,-0.6897 -1.9048,-0.6897 l -12.8273,6.9599 c 0,0 0.8334,0.9114 1.0572,0.9115 z"/>
        <path inkscape:connector-curvature="0" id="path3953" style="fill:#4f4c4d;fill-opacity:1;fill-rule:nonzero;stroke:none" d="m 306.4466,466.4311 c 0.3391,-6.8821 -0.029,-26.1346 -0.7119,-25.2966 0.598,-0.7338 -17.8485,-10.2445 -20.1905,-10.8627 -0.5814,-0.1497 -1.0145,0.1358 -0.9758,0.4545 -6.3372,3.399 -20.3722,12.5819 -19.4295,12.6905 -0.9409,-0.1084 -0.1056,25.4345 -0.045,25.3342 -1.0047,1.661 20.5644,12.6116 21.2704,10.7918 -0.6354,1.6379 13.3161,-7.2993 19.4889,-12.1486 0.4045,0.1605 0.5893,0.1862 0.4288,0.011 0.055,0.06 0.099,-0.1079 0.1315,-0.4733 0.1927,-0.1712 0.3182,-0.3029 0.3702,-0.3912 -0.069,-0.011 -0.1845,-0.049 -0.3371,-0.1092 z"/>
        <path inkscape:connector-curvature="0" id="path3955" style="fill:#9a684d;fill-opacity:1;fill-rule:evenodd;stroke:none" d="m 285.6504,432.1769 c 0.4926,-0.3263 0.9907,24.46 0.4391,23.7603 0.5589,0.7089 19.7999,10.4258 19.0278,9.6035 0.7721,0.8223 0.2533,-24.6322 -0.4586,-23.7341 0.7051,-0.8895 -18.1615,-10.4293 -19.0083,-9.6297 z"/>
        <path inkscape:connector-curvature="0" id="path3957" style="fill:#b18e66;fill-opacity:1;fill-rule:evenodd;stroke:none" d="m 284.5417,432.2445 c 0.4572,-1.0099 -19.2855,11.6703 -18.2825,11.768 -1.003,-0.098 -0.4936,25.3559 0.4495,23.7333 -0.9431,1.6226 18.7996,-11.0576 18.2826,-11.7681 0.517,0.7105 0.01,-24.7431 -0.4496,-23.7332 z"/>
        <path inkscape:connector-curvature="0" id="path3959" style="fill:#dbb58e;fill-opacity:1;fill-rule:evenodd;stroke:none" d="m 304.6225,466.5506 c -0.1183,0.388 -18.5229,-8.9137 -19.0501,-9.643 0.5393,0.7459 -19.1057,12.6369 -19.1057,12.6369 1.8649,1.2356 18.4481,10.0402 20.0983,9.0829 1.1373,-0.6598 18.2963,-10.9638 18.0575,-12.0768 z"/>
        <path inkscape:connector-curvature="0" id="path3961" style="fill:#333333;fill-opacity:1;fill-rule:nonzero;stroke:none" d="m 285.3236,444.6487 20.406,9.4699 0.4714,-1.0155 -20.6759,-9.5951 -0.2357,0.5078 -0.2889,-0.4795 -10.044,6.0518 -0.6916,-11.5247 -1.1177,0.067 0.7267,12.1098 -9.0041,5.4253 0.5779,0.9589 8.5019,-5.1227 0.7783,12.9698 9.3221,4.7634 -7.7363,5.428 0.6432,0.9165 8.221,-5.7682 9.1405,4.6706 0.5095,-0.997 -8.6131,-4.4011 9.6274,-6.7549 -0.6432,-0.9164 -10.1121,7.095 -9.2797,-4.7417 -0.775,-12.9163 10.2914,-6.2008 z"/>
        <path inkscape:connector-curvature="0" id="path3963" style="fill:#333333;fill-opacity:1;fill-rule:nonzero;stroke:none" d="m 294.8283,461.2368 1.3435,0.05 0.1156,-25.8365 -1.3435,-0.05 -0.1156,25.8366 z"/>
        <path inkscape:connector-curvature="0" id="path3965" style="fill:#333333;fill-opacity:1;fill-rule:nonzero;stroke:none" d="m 330.4828,454.1115 c 0.3113,-3.0532 0.6108,-8.5643 0.7833,-13.6675 -1.6824,-0.881 -2.8868,-1.4853 -2.9696,-1.4315 l -30.5664,-14.8144 c -4.3448,2.5243 -7.7637,4.6894 -7.2939,4.7686 -0.9341,-0.1575 -1.4367,25.3941 -1.3709,25.2971 -1.0903,1.6062 19.8762,13.6706 20.6765,11.8903 -0.7203,1.6025 13.6798,-6.5923 20.098,-11.1119 0.3955,0.1813 0.5788,0.2168 0.4277,0.033 0.052,0.063 0.104,-0.1026 0.156,-0.4658 0.2014,-0.1609 0.3337,-0.2859 0.3902,-0.3713 -0.069,-0.014 -0.1816,-0.058 -0.3309,-0.1266 z"/>
        <path inkscape:connector-curvature="0" id="path3967" style="fill:#9a684d;fill-opacity:1;fill-rule:evenodd;stroke:none" d="m 311.4884,430.8663 c -0.2006,6.0611 -0.5287,12.0636 -0.7856,11.7001 0.521,0.7372 19.2271,11.4478 18.4991,10.5863 0.3918,0.4636 0.8085,-6.6915 0.9917,-13.2658 -1.1025,-0.5662 -1.8332,-0.9159 -1.8971,-0.8744 l -16.8081,-8.1462 z"/>
        <path inkscape:connector-curvature="0" id="path3969" style="fill:#b18e66;fill-opacity:1;fill-rule:evenodd;stroke:none" d="m 299.0066,424.8167 c -4.2311,2.4548 -7.9208,4.7375 -7.4829,4.8035 -0.9965,-0.1501 -1.82,25.2954 -0.7932,23.7243 -1.0268,1.5711 19.3525,-10.0586 18.8734,-10.7951 0.243,0.3736 0.5747,-5.9882 0.776,-12.2205 l -11.3733,-5.5122 z"/>
        <path inkscape:connector-curvature="0" id="path3971" style="fill:#dbb58e;fill-opacity:1;fill-rule:evenodd;stroke:none" d="m 328.655,454.1351 c -0.1384,0.3814 -18.0311,-9.8708 -18.5193,-10.6267 0.4994,0.7732 -19.741,11.6197 -19.741,11.6197 1.7977,1.3315 17.8974,10.992 19.5954,10.1224 1.1703,-0.5994 18.8452,-9.9914 18.6649,-11.1154 z"/>
        <path inkscape:connector-curvature="0" id="path3973" style="fill:#333333;fill-opacity:1;fill-rule:nonzero;stroke:none" d="m 310.5287,431.2533 20.2234,9.0102 0.183,0.5253 -11.1309,-5.8923 -9.1844,-4.4513 -0.2495,-0.121 -0.2509,-0.1216 -10.2021,5.4407 -0.079,-10.4235 -1.124,-0.5448 0.088,11.563 -9.2758,4.9466 0.5269,0.9878 8.7584,-4.6706 0.099,12.9927 9.0601,5.2448 -8.0098,5.0157 0.5943,0.9489 8.5117,-5.3301 8.8835,5.1426 0.561,-0.9689 -8.371,-4.8459 9.9677,-6.2417 -0.5943,-0.9489 -10.4696,6.556 -9.0188,-5.2208 -0.098,-12.9392 10.6018,-5.6537 z"/>
        <path inkscape:connector-curvature="0" id="path3975" style="fill:#333333;fill-opacity:1;fill-rule:nonzero;stroke:none" d="m 319.1523,448.3161 1.3391,0.1204 0.7311,-12.8525 -1.3097,-0.6348 -0.7605,13.3669 z"/>
        <path inkscape:connector-curvature="0" id="path3977" style="fill:#333333;fill-opacity:1;fill-rule:nonzero;stroke:none" d="m 241.567,451.9249 c 5.8548,3.6331 22.8717,12.645 22.4698,11.6414 0.3519,0.8787 17.6131,-10.6444 19.2892,-12.3932 0.4128,-0.4358 0.3731,-0.9531 0.076,-1.0739 0.1,-7.1906 -1.1278,-23.9181 -1.6798,-23.1461 0.551,-0.7705 -22.194,-12.4232 -22.1357,-12.3215 -0.9657,-1.6841 -21.0001,11.8722 -19.7508,13.3719 -1.1244,-1.3498 -0.072,15.1855 1.177,22.9355 -0.3364,0.276 -0.4486,0.4252 -0.2171,0.3699 -0.079,0.019 0.047,0.1384 0.3502,0.3445 0.056,0.2515 0.1106,0.4252 0.1627,0.5134 0.043,-0.055 0.132,-0.1377 0.2589,-0.2419 z"/>
        <path inkscape:connector-curvature="0" id="path3979" style="fill:#9a684d;fill-opacity:1;fill-rule:evenodd;stroke:none" d="m 281.6082,450.3424 c 0.047,0.5891 -21.8732,-10.9918 -20.9938,-11.1351 -0.891,0.1452 -18.7176,12.2633 -17.6242,11.9866 -1.0934,0.2767 21.4209,12.1635 20.9804,11.1054 0.4362,1.0479 17.9264,-10.8286 17.6376,-11.9569 z"/>
        <path inkscape:connector-curvature="0" id="path3981" style="fill:#b18e66;fill-opacity:1;fill-rule:evenodd;stroke:none" d="m 282.0867,449.3399 c 0.6616,0.8896 -0.8573,-22.5257 -1.429,-21.6958 0.5717,-0.8299 -21.9373,-12.7244 -20.9753,-11.1129 -0.962,-1.6115 0.5569,21.8037 1.429,21.6959 -0.8721,0.1078 21.6369,12.0024 20.9753,11.1128 z"/>
        <path inkscape:connector-curvature="0" id="path3983" style="fill:#dbb58e;fill-opacity:1;fill-rule:evenodd;stroke:none" d="m 242.3469,450.2717 c -0.2822,-0.2916 16.776,-11.8796 17.6694,-11.9871 -0.9138,0.11 -1.7898,-22.8371 -1.7898,-22.8371 -1.9848,1.0322 -17.7251,11.2679 -17.6878,13.1753 0.026,1.3146 0.7189,21.3182 1.8082,21.6489 z"/>
        <path inkscape:connector-curvature="0" id="path3985" style="fill:#333333;fill-opacity:1;fill-rule:nonzero;stroke:none" d="m 270.8587,444.0101 -18.1755,13.2569 0.6597,0.9046 18.4158,-13.4321 -0.3298,-0.4524 0.5594,-0.02 -0.4236,-11.7187 10.415,4.9823 0.4832,-1.0101 -10.9438,-5.2354 -0.3797,-10.5055 -1.1189,0.041 0.3586,9.9196 -11.7208,-5.6071 -8.6856,5.8442 -0.9969,-9.3981 -1.1133,0.1182 1.0593,9.987 -8.5163,5.7303 0.6249,0.929 8.025,-5.3997 1.2405,11.6952 1.1133,-0.1182 -1.3029,-12.2842 8.6459,-5.8175 11.6725,5.584 0.434,12.0074 z"/>
        <path inkscape:connector-curvature="0" id="path3987" style="fill:#333333;fill-opacity:1;fill-rule:nonzero;stroke:none" d="m 251.7426,444.2814 -0.6952,1.1507 22.541,12.6268 0.6952,-1.1507 -22.541,-12.6268 z"/>
        <path inkscape:connector-curvature="0" id="path3989" style="fill:#333333;fill-opacity:1;fill-rule:nonzero;stroke:none" d="m 301.8036,436.3282 c 0.2343,-2.2979 0.462,-5.9881 0.6338,-9.8487 l -11.9275,-5.7807 -0.8364,-2.4861 0.063,-15.4489 c -3.2609,-1.8633 -6.0884,-3.3745 -6.9142,-3.6394 -0.5726,-0.18 -1.0202,0.082 -0.9982,0.4028 -6.5064,3.0627 -21.0028,11.4984 -20.067,11.6562 -0.934,-0.1575 -1.4366,25.3941 -1.3708,25.2971 -1.0904,1.6062 19.8761,13.6707 20.6765,11.8904 -0.7204,1.6024 13.6798,-6.5924 20.098,-11.112 0.3955,0.1814 0.5787,0.2168 0.4276,0.033 0.052,0.063 0.104,-0.1026 0.1561,-0.4658 0.2014,-0.1608 0.3337,-0.2858 0.3901,-0.3712 -0.069,-0.014 -0.1816,-0.058 -0.3309,-0.1267 z"/>
        <path inkscape:connector-curvature="0" id="path3991" style="fill:#9a684d;fill-opacity:1;fill-rule:evenodd;stroke:none" d="m 282.8286,401.0324 c 0.509,-0.3001 -0.2907,24.4783 -0.805,23.7508 0.5211,0.7372 19.2271,11.4478 18.4992,10.5862 0.3151,0.3729 0.6463,-4.1831 0.8592,-9.4013 l -10.8721,-5.2693 -0.8364,-2.4861 0.057,-14.1258 c -3.5165,-1.9104 -6.554,-3.3505 -6.9024,-3.0545 z"/>
        <path inkscape:connector-curvature="0" id="path3993" style="fill:#b18e66;fill-opacity:1;fill-rule:evenodd;stroke:none" d="m 281.7179,401.0419 c 0.5095,-0.9847 -19.8699,10.645 -18.8734,10.795 -0.9965,-0.15 -1.82,25.2954 -0.7932,23.7243 -1.0268,1.5711 19.3526,-10.0585 18.8735,-10.7951 0.4791,0.7366 1.3026,-24.7089 0.7931,-23.7242 z"/>
        <path inkscape:connector-curvature="0" id="path3995" style="fill:#dbb58e;fill-opacity:1;fill-rule:evenodd;stroke:none" d="m 299.9758,436.352 c -0.1384,0.3813 -18.0311,-9.8709 -18.5193,-10.6268 0.4994,0.7731 -19.741,11.6197 -19.741,11.6197 1.7977,1.3315 17.8974,10.9919 19.5955,10.1223 1.1702,-0.5994 18.8451,-9.9913 18.6648,-11.1152 z"/>
        <path inkscape:connector-curvature="0" id="path3997" style="fill:#333333;fill-opacity:1;fill-rule:nonzero;stroke:none" d="m 281.8495,413.4701 7.8264,4.1429 0.01,-1.2641 -7.5705,-4.0075 -0.2619,0.4948 -0.2635,-0.494 -10.347,5.5178 -0.088,-11.545 -1.1196,0.01 0.092,12.1313 -9.2758,4.9465 0.527,0.9879 8.7584,-4.6707 0.098,12.9927 9.0601,5.2448 -8.0098,5.0158 0.5943,0.9488 8.5117,-5.33 8.8835,5.1426 0.561,-0.969 -8.371,-4.8459 9.9677,-6.2417 -0.5943,-0.9489 -10.4696,6.5561 -9.0188,-5.2209 -0.098,-12.9392 10.6018,-5.6536 z"/>
        <path inkscape:connector-curvature="0" id="path3999" style="fill:#333333;fill-opacity:1;fill-rule:nonzero;stroke:none" d="m 290.4731,430.5329 1.3391,0.1204 0.5161,-9.0732 -1.3097,-0.6348 -0.5455,9.5876 z"/>
        <path inkscape:connector-curvature="0" id="path4001" style="fill:#3d3938;fill-opacity:1;fill-rule:nonzero;stroke:none" d="m 291.8449,419.03 -1.335,1.6688 39.011,19.2085 c 0.2958,-0.1921 0.8142,-0.6795 0.4128,-1.4449 -0.091,-0.2712 -0.232,-0.4828 -0.4118,-0.6286 l 0.033,-0.1442 -37.7101,-18.6596 z"/>
        <path inkscape:connector-curvature="0" id="path4003" style="fill:#333333;fill-opacity:1;fill-rule:nonzero;stroke:none" d="m 272.125,485.2612 c -0.3158,0.8951 14.0901,-7.6943 19.923,-11.9002 0.2696,0.1745 0.7161,-0.09 0.8363,-0.6778 0.4711,-2.376 0.01,-23.1251 -0.9123,-22.9093 1.0525,-0.2465 -16.0899,-9.0169 -22.4241,-11.729 0.013,-0.1637 0.029,-0.2837 0.05,-0.3508 0.059,0 0.094,0.01 0.1042,0.034 -0.043,-0.1188 -0.077,-0.1229 -0.1042,-0.034 -0.102,0.01 -0.2755,0.063 -0.5139,0.1613 -0.3429,-0.1306 -0.5129,-0.1652 -0.4829,-0.089 -0.088,-0.2212 -0.1454,-0.044 -0.1786,0.3901 -7.0643,3.4225 -21.2128,12.0444 -19.4621,12.1912 -1.945,-0.1631 -1.558,24.0238 0.3754,23.8488 -0.1168,0.011 22.4745,11.9584 22.7896,11.0651 z"/>
        <path inkscape:connector-curvature="0" id="path4005" style="fill:#9a684d;fill-opacity:1;fill-rule:evenodd;stroke:none" d="m 291.1865,471.7586 c 1.1278,0 -21.5228,-11.6295 -21.1307,-10.8164 -0.3921,-0.8131 -0.6909,-22.3665 -0.2903,-21.3122 -0.4006,-1.0543 22.25,10.5703 21.1307,10.8163 1.1193,-0.246 1.4181,21.3074 0.2903,21.3123 z"/>
        <path inkscape:connector-curvature="0" id="path4007" style="fill:#b18e66;fill-opacity:1;fill-rule:evenodd;stroke:none" d="m 290.6719,472.7194 c 1.1081,0.032 -18.9432,12.2182 -18.5913,11.2739 -0.3519,0.9443 -23.0058,-10.6715 -21.1339,-10.8079 -1.8719,0.1364 18.1794,-12.0499 18.5913,-11.2738 -0.4119,-0.7761 22.242,10.8396 21.1339,10.8078 z"/>
        <path inkscape:connector-curvature="0" id="path4009" style="fill:#dbb58e;fill-opacity:1;fill-rule:evenodd;stroke:none" d="m 268.6696,439.6692 c -0.4425,-1.0528 -0.1467,20.5007 0.2874,21.3124 -0.4341,-0.8117 -19.7331,11.6328 -19.7331,11.6328 -0.293,-2.2178 -0.9369,-20.9826 0.6469,-22.0461 1.107,-0.7434 18.3563,-11.9519 18.7988,-10.8991 z"/>
        <path inkscape:connector-curvature="0" id="path4011" style="fill:#333333;fill-opacity:1;fill-rule:nonzero;stroke:none" d="m 279.8659,466.5791 -10.0845,6.5318 -11.2691,-6.3587 -0.1939,-10.4192 10.8096,-5.9787 -0.5418,-0.9797 -10.2914,5.692 -0.1799,-9.6708 -1.1194,0.021 0.191,10.2629 -8.7882,4.8607 0.5418,0.9798 8.2699,-4.574 0.1948,10.4669 11.3158,6.385 -8.3312,5.396 0.6086,0.9398 8.8232,-5.7148 10.5656,5.9617 0.5502,-0.9752 -10.055,-5.6736 9.8422,-6.3747 -0.3043,-0.4699 0.5596,0.011 0.4397,-22.7898 -1.1194,-0.021 -0.4339,22.4924 z"/>
        <path inkscape:connector-curvature="0" id="path4013" style="fill:#333333;fill-opacity:1;fill-rule:nonzero;stroke:none" d="m 312.178,443.8738 c 0.9358,-0.1578 -13.5606,-8.5936 -20.067,-11.6563 0.022,-0.3203 -0.4255,-0.5828 -0.9982,-0.4028 -2.3065,0.7399 -20.2301,11.2031 -19.5945,11.9045 -0.7258,-0.8011 -0.086,18.4444 0.6131,25.2993 -0.1493,0.068 -0.2623,0.1122 -0.3309,0.1267 -0.033,-0.05 -0.04,-0.086 -0.021,-0.1078 -0.083,0.095 -0.07,0.1269 0.021,0.1078 0.056,0.085 0.1888,0.2104 0.3902,0.3713 0.052,0.3632 0.1042,0.5287 0.156,0.4657 -0.1511,0.1838 0.032,0.1484 0.4277,-0.033 6.4182,4.5196 20.8183,12.7144 20.0979,11.112 0.8004,1.7803 21.7669,-10.2841 20.6765,-11.8904 0.066,0.097 -0.4368,-25.4546 -1.3708,-25.297 z"/>
        <path inkscape:connector-curvature="0" id="path4015" style="fill:#9a684d;fill-opacity:1;fill-rule:evenodd;stroke:none" d="m 291.1272,433.7479 c -0.551,-0.984 0.2632,24.4628 0.7842,23.7256 -0.521,0.7372 -19.2271,11.4478 -18.4992,10.5862 -0.7279,0.8616 -1.542,-24.5853 -0.7842,-23.7256 -0.7578,-0.8597 17.9482,-11.5702 18.4992,-10.5862 z"/>
        <path inkscape:connector-curvature="0" id="path4017" style="fill:#b18e66;fill-opacity:1;fill-rule:evenodd;stroke:none" d="m 292.2171,433.7322 c -0.5094,-0.9846 19.8699,10.645 18.8734,10.795 0.9965,-0.15 1.82,25.2954 0.7932,23.7243 1.0268,1.5711 -19.3525,-10.0585 -18.8734,-10.7951 -0.4791,0.7366 -1.3026,-24.7088 -0.7932,-23.7242 z"/>
        <path inkscape:connector-curvature="0" id="path4019" style="fill:#dbb58e;fill-opacity:1;fill-rule:evenodd;stroke:none" d="m 273.9779,468.9993 c -0.7063,0.8974 18.0012,-9.8107 18.5006,-10.5838 -0.4994,0.7731 19.741,11.6197 19.741,11.6197 -1.7977,1.3315 -17.8974,10.9919 -19.5954,10.1223 -1.1869,-0.6079 -19.3525,-10.2608 -18.6462,-11.1582 z"/>
        <path inkscape:connector-curvature="0" id="path4021" style="fill:#333333;fill-opacity:1;fill-rule:nonzero;stroke:none" d="m 292.0855,446.1604 10.6018,5.6537 -0.098,12.9391 -9.0188,5.2209 -10.4696,-6.5561 -0.5943,0.9489 9.9677,6.2418 -8.371,4.8458 0.561,0.9689 8.8835,-5.1425 8.5117,5.33 0.5944,-0.9489 -8.0098,-5.0157 9.06,-5.2448 0.098,-12.9927 8.7585,4.6707 0.5269,-0.9879 -9.2758,-4.9465 0.092,-12.1314 -1.1197,-0.01 -0.088,11.5451 -10.347,-5.5179 -0.2634,0.494 -0.262,-0.4948 -20.1454,10.6642 0.5239,0.9894 19.8825,-10.5249 z"/>
        <path inkscape:connector-curvature="0" id="path4023" style="fill:#333333;fill-opacity:1;fill-rule:nonzero;stroke:none" d="m 282.7541,437.657 -1.1197,0.01 0.1999,26.3877 1.1149,-0.6483 -0.1951,-25.7479 z"/>
      </g>
    </g>
  </g>
</svg>
